<?xml version="1.0" encoding="UTF-8" standalone="no"?>
<!DOCTYPE svg PUBLIC "-//W3C//DTD SVG 20010904//EN"
              "http://www.w3.org/TR/2001/REC-SVG-20010904/DTD/svg10.dtd">

<svg xmlns="http://www.w3.org/2000/svg"
     width="6.97778in" height="6.97778in"
     viewBox="0 0 628 628">
  <path id="Selection"
        fill="none" stroke="black" stroke-width="1"
        d="M 316.00,0.00
           C 316.00,0.00 335.75,40.00 335.75,40.00
             335.75,40.00 369.25,108.00 369.25,108.00
             369.25,108.00 384.68,138.00 384.68,138.00
             384.68,138.00 405.75,181.00 405.75,181.00
             405.75,181.00 416.21,199.41 416.21,199.41
             416.21,199.41 434.00,203.59 434.00,203.59
             434.00,203.59 474.00,210.61 474.00,210.61
             474.00,210.61 628.00,238.00 628.00,238.00
             626.28,243.86 622.36,246.47 618.42,251.00
             618.42,251.00 592.09,279.00 592.09,279.00
             592.09,279.00 512.83,364.00 512.83,364.00
             512.83,364.00 487.42,391.00 487.42,391.00
             485.50,393.22 480.04,398.88 479.04,401.00
             477.45,404.33 479.57,414.96 480.13,419.00
             480.13,419.00 486.58,464.00 486.58,464.00
             486.58,464.00 501.27,568.00 501.27,568.00
             501.27,568.00 509.00,626.00 509.00,626.00
             509.00,626.00 444.00,592.31 444.00,592.31
             444.00,592.31 392.00,565.26 392.00,565.26
             392.00,565.26 374.00,556.14 374.00,556.14
             374.00,556.14 332.00,534.25 332.00,534.25
             332.00,534.25 315.00,526.05 315.00,526.05
             315.00,526.05 298.00,533.75 298.00,533.75
             298.00,533.75 258.00,554.69 258.00,554.69
             258.00,554.69 240.00,563.78 240.00,563.78
             240.00,563.78 168.00,601.26 168.00,601.26
             168.00,601.26 120.00,626.00 120.00,626.00
             120.00,626.00 126.72,577.00 126.72,577.00
             126.72,577.00 142.42,465.00 142.42,465.00
             142.42,465.00 149.00,419.00 149.00,419.00
             149.00,419.00 150.61,401.58 150.61,401.58
             150.61,401.58 139.00,388.00 139.00,388.00
             139.00,388.00 118.17,366.00 118.17,366.00
             118.17,366.00 75.09,320.00 75.09,320.00
             75.09,320.00 37.96,280.00 37.96,280.00
             37.96,280.00 10.83,251.00 10.83,251.00
             10.83,251.00 0.00,238.00 0.00,238.00
             0.00,238.00 44.00,230.25 44.00,230.25
             44.00,230.25 152.00,211.25 152.00,211.25
             152.00,211.25 195.00,203.61 195.00,203.61
             195.00,203.61 212.79,199.42 212.79,199.42
             212.79,199.42 222.25,183.00 222.25,183.00
             222.25,183.00 242.25,143.00 242.25,143.00
             242.25,143.00 288.75,50.00 288.75,50.00
             288.75,50.00 314.00,0.00 314.00,0.00
             314.00,0.00 316.00,0.00 316.00,0.00 Z" />
</svg>
